<?xml version="1.0" encoding="UTF-8" standalone="no"?>
<!-- Created with Inkscape (http://www.inkscape.org/) -->

<svg
   width="6.6559329mm"
   height="9.8805408mm"
   viewBox="0 0 6.6559329 9.8805409"
   version="1.1"
   id="svg5"
   inkscape:version="1.1.1 (3bf5ae0d25, 2021-09-20)"
   sodipodi:docname="favicon.svg"
   xmlns:inkscape="http://www.inkscape.org/namespaces/inkscape"
   xmlns:sodipodi="http://sodipodi.sourceforge.net/DTD/sodipodi-0.dtd"
   xmlns="http://www.w3.org/2000/svg"
   xmlns:svg="http://www.w3.org/2000/svg">
  <sodipodi:namedview
     id="namedview7"
     pagecolor="#505050"
     bordercolor="#eeeeee"
     borderopacity="1"
     inkscape:pageshadow="0"
     inkscape:pageopacity="0"
     inkscape:pagecheckerboard="0"
     inkscape:document-units="mm"
     showgrid="false"
     fit-margin-top="0"
     fit-margin-left="0"
     fit-margin-right="0"
     fit-margin-bottom="0"
     inkscape:zoom="2.6205012"
     inkscape:cx="-9.3493565"
     inkscape:cy="62.011038"
     inkscape:window-width="1366"
     inkscape:window-height="705"
     inkscape:window-x="-8"
     inkscape:window-y="-8"
     inkscape:window-maximized="1"
     inkscape:current-layer="layer1" />
  <defs
     id="defs2" />
  <g
     inkscape:label="Layer 1"
     inkscape:groupmode="layer"
     id="layer1"
     transform="translate(-113.83113,-105.50145)">
    <a
       id="a22"
       style="font-size:10.5833px;line-height:1.25;stroke-width:0.264583"
       transform="translate(28.790715,-55.656319)">
      <path
         d="m 87.810258,161.15777 0.02067,0.0207 v 2.93521 q 0.139526,0.12402 0.289387,0.12402 v 0.0413 q -0.289387,0.0982 -0.289387,0.26872 v 4.98159 q 0,0.45992 0.43408,0.57878 v 0.0207 q -0.537433,0.28422 -1.074866,0.82682 l -0.04134,0.0827 h -0.04134 q -0.315225,-0.32039 -0.930173,-0.53743 -0.847491,-0.57878 -0.847491,-1.55029 v -4.36148 q 0,-0.33589 -0.268716,-0.45475 h -0.02067 v -0.0413 q 1.13171,-0.3669 1.860346,-0.80615 V 161.964 q 0,-0.39791 0.909502,-0.80615 z m -1.715652,3.12124 q 0.118855,0 0.144694,0.26872 h 0.02067 l -0.02067,0.12402 0.02067,4.03075 v 0.53743 q 0,0.61495 0.640786,1.0542 v -5.76707 q 0,-0.13953 0.206705,-0.31006 -0.05168,0 -0.310058,-0.28939 -0.279052,0.16537 -0.702797,0.33073 z"
         style="font-family:'Bad Boys';-inkscape-font-specification:'Bad Boys, Normal'"
         id="path8881" />
    </a>
    <path
       d="m 120.03228,105.50145 0.0207,0.0207 v 2.93521 q 0.13952,0.12402 0.28938,0.12402 v 0.0413 q -0.28938,0.0982 -0.28938,0.26872 v 4.98159 q 0,0.45992 0.43408,0.57878 v 0.0207 q -0.53744,0.28422 -1.07487,0.82682 l -0.0413,0.0827 h -0.0413 q -0.31522,-0.32039 -0.93017,-0.53743 -0.84749,-0.57878 -0.84749,-1.55029 v -4.36148 q 0,-0.33589 -0.26872,-0.45475 h -0.0207 v -0.0413 q 1.13171,-0.3669 1.86035,-0.80615 v -1.32291 q 0,-0.39791 0.9095,-0.80615 z m -1.71566,3.12124 q 0.11886,0 0.1447,0.26872 h 0.0207 l -0.0207,0.12402 0.0207,4.03075 v 0.53743 q 0,0.61495 0.64078,1.0542 v -5.76707 q 0,-0.13953 0.20671,-0.31006 -0.0517,0 -0.31006,-0.28939 -0.27905,0.16537 -0.7028,0.33073 z"
       style="font-size:10.5833px;line-height:1.25;font-family:'Bad Boys';-inkscape-font-specification:'Bad Boys, Normal';stroke-width:0.264583"
       id="path8883" />
  </g>
</svg>
