<?xml version="1.0" encoding="UTF-8" standalone="no"?>
<!-- Created with Inkscape (http://www.inkscape.org/) -->

<svg
   width="16.908474mm"
   height="9.8805027mm"
   viewBox="0 0 16.908474 9.8805027"
   version="1.1"
   id="svg5"
   inkscape:version="1.1.1 (3bf5ae0d25, 2021-09-20)"
   sodipodi:docname="ddeoli.svg"
   xmlns:inkscape="http://www.inkscape.org/namespaces/inkscape"
   xmlns:sodipodi="http://sodipodi.sourceforge.net/DTD/sodipodi-0.dtd"
   xmlns="http://www.w3.org/2000/svg"
   xmlns:svg="http://www.w3.org/2000/svg">
  <sodipodi:namedview
     id="namedview7"
     pagecolor="#505050"
     bordercolor="#eeeeee"
     borderopacity="1"
     inkscape:pageshadow="0"
     inkscape:pageopacity="0"
     inkscape:pagecheckerboard="0"
     inkscape:document-units="mm"
     showgrid="false"
     inkscape:zoom="2.6205012"
     inkscape:cx="0.19080319"
     inkscape:cy="7.822931"
     inkscape:window-width="1366"
     inkscape:window-height="705"
     inkscape:window-x="-8"
     inkscape:window-y="-8"
     inkscape:window-maximized="1"
     inkscape:current-layer="text2805"
     fit-margin-top="0"
     fit-margin-left="0"
     fit-margin-right="0"
     fit-margin-bottom="0" />
  <defs
     id="defs2" />
  <g
     inkscape:label="Layer 1"
     inkscape:groupmode="layer"
     id="layer1"
     transform="translate(-85.04041,-161.15777)">
    <g
       aria-label="ddeoli"
       id="text2805"
       style="font-size:10.5833px;line-height:1.25;stroke-width:0.264583">
      <a
         id="a22">
        <path
           d="m 87.810258,161.15777 0.02067,0.0207 v 2.93521 q 0.139526,0.12402 0.289387,0.12402 v 0.0413 q -0.289387,0.0982 -0.289387,0.26872 v 4.98159 q 0,0.45992 0.43408,0.57878 v 0.0207 q -0.537433,0.28422 -1.074866,0.82682 l -0.04134,0.0827 h -0.04134 q -0.315225,-0.32039 -0.930173,-0.53743 -0.847491,-0.57878 -0.847491,-1.55029 v -4.36148 q 0,-0.33589 -0.268716,-0.45475 h -0.02067 v -0.0413 q 1.13171,-0.3669 1.860346,-0.80615 v -1.32291 q 0,-0.39791 0.909502,-0.80615 z m -1.715652,3.12124 q 0.118855,0 0.144694,0.26872 h 0.02067 l -0.02067,0.12402 0.02067,4.03075 v 0.53743 q 0,0.61495 0.640786,1.0542 v -5.76707 q 0,-0.13953 0.206705,-0.31006 -0.05168,0 -0.310058,-0.28939 -0.279052,0.16537 -0.702797,0.33073 z"
           style="font-family:'Bad Boys';-inkscape-font-specification:'Bad Boys, Normal'"
           id="path8881" />
      </a>
      <path
         d="m 91.241562,161.15777 0.02067,0.0207 v 2.93521 q 0.139526,0.12402 0.289387,0.12402 v 0.0413 q -0.289387,0.0982 -0.289387,0.26872 v 4.98159 q 0,0.45992 0.43408,0.57878 v 0.0207 q -0.537433,0.28422 -1.074866,0.82682 l -0.04134,0.0827 h -0.04134 q -0.315225,-0.32039 -0.930173,-0.53743 -0.847491,-0.57878 -0.847491,-1.55029 v -4.36148 q 0,-0.33589 -0.268716,-0.45475 h -0.02067 v -0.0413 q 1.131711,-0.3669 1.860346,-0.80615 v -1.32291 q 0,-0.39791 0.909502,-0.80615 z m -1.715652,3.12124 q 0.118856,0 0.144694,0.26872 h 0.02067 l -0.02067,0.12402 0.02067,4.03075 v 0.53743 q 0,0.61495 0.640786,1.0542 v -5.76707 q 0,-0.13953 0.206705,-0.31006 -0.05168,0 -0.310058,-0.28939 -0.279051,0.16537 -0.702797,0.33073 z"
         style="font-family:'Bad Boys';-inkscape-font-specification:'Bad Boys, Normal'"
         id="path8883" />
      <path
         d="m 93.825376,163.32817 q 0.800982,0.95084 1.178219,0.95084 v 0.0413 q -0.289387,0.0827 -0.289387,0.31006 v 1.69498 l -0.04134,0.0413 q -0.868162,-0.42891 -0.868162,-0.74413 v -1.03353 q 0,-0.2067 0.206705,-0.31006 -0.201537,-0.16536 -0.310057,-0.31005 -0.320393,0.18603 -0.702798,0.33072 v 0.0207 q 0.165364,0.0672 0.165364,0.28939 v 1.36425 q 0,0.43409 0.826821,0.43409 h 0.124023 v 0.0207 q -0.341064,0.47542 -0.496092,0.47542 -0.408243,0 -0.496093,0.64078 v 1.57096 q 0,0.81132 0.682127,1.21956 v -2.97655 q 0,-0.31006 0.888832,-0.74414 l 0.02067,0.0207 v 2.93521 q 0,0.46509 0.41341,0.55811 v 0.0413 q -0.382405,0.10335 -1.136878,0.86816 h -0.02067 q -0.232543,-0.25838 -0.950843,-0.53743 -0.80615,-0.56328 -0.80615,-1.59163 v -1.6123 q 0,-0.50643 0.599445,-0.7028 v -0.0207 q -0.558104,-0.17053 -0.558104,-0.53743 v -1.38493 q 0,-0.36173 -0.268716,-0.47542 h -0.02067 v -0.0413 q 1.121375,-0.37207 1.860346,-0.80615 z"
         style="font-family:'Bad Boys';-inkscape-font-specification:'Bad Boys, Normal'"
         id="path8885" />
      <path
         d="m 97.230842,163.3075 q 0.842323,0.88883 1.033525,0.88883 l 0.186035,0.0827 v 0.0207 q -0.289387,0.10336 -0.289387,0.28939 v 4.89891 q 0,0.48576 0.43408,0.62012 v 0.0413 q -0.449583,0.14986 -1.136878,0.88883 -0.206705,-0.25838 -0.992184,-0.57878 -0.785479,-0.59944 -0.785479,-1.4676 v -4.36148 q 0,-0.34106 -0.268717,-0.47542 h -0.02067 v -0.0413 q 1.224727,-0.39274 1.839675,-0.80615 z m -0.80615,0.97151 v 0.0207 q 0.124023,0 0.165364,0.26872 v 4.44416 q 0,0.85783 0.620115,1.2609 h 0.02067 l 0.02067,-5.78774 q 0,-0.0465 0.186035,-0.24805 -0.06718,0 -0.289387,-0.28938 -0.599445,0.32039 -0.723468,0.33072 z"
         style="font-family:'Bad Boys';-inkscape-font-specification:'Bad Boys, Normal'"
         id="path8887" />
      <path
         d="m 99.204875,161.19911 q 0.888835,0.40824 0.888835,0.76481 v 8.88831 q -0.144696,0.1447 -0.144696,0.18604 h -0.04134 q -0.69763,-0.72864 -1.136878,-0.88883 v -0.0207 q 0.351398,0 0.41341,-0.62012 v -8.2682 l 0.02067,-0.0207 z"
         style="font-family:'Bad Boys';-inkscape-font-specification:'Bad Boys, Normal'"
         id="path8889" />
      <path
         d="m 100.56396,161.48849 q 0.97151,0.47026 0.97151,0.80615 v 1.0542 h -0.0207 q -0.50642,-0.45992 -0.97151,-0.72347 v -1.09553 l 0.0207,-0.0207 z m 0,1.79834 q 0.93017,0.40307 0.93017,0.74414 v 5.41567 q 0.062,0.64079 0.45475,0.64079 v 0.0207 q -0.57877,0.32039 -1.03352,0.78548 l -0.10335,0.14469 h -0.062 q 0,-0.0465 -0.18604,-0.20671 z"
         style="font-family:'Bad Boys';-inkscape-font-specification:'Bad Boys, Normal'"
         id="path8891" />
    </g>
  </g>
</svg>
