<svg version="1.1" xmlns="http://www.w3.org/2000/svg" xmlns:xlink="http://www.w3.org/1999/xlink" x="0px" y="0px" viewBox="0 0 135 22" xml:space="preserve" >
  <g>
    <path d="M82.1,0.4c4.7,0,8.5,3.7,8.5,8.5v11.2h-5.8V8.8c0-1.4-1.1-2.6-2.6-2.6s-2.6,1.1-2.6,2.6v11.2h-5.8V8.8   C73.6,4.1,77.4,0.4,82.1,0.4z"/>
    <path d="M93.2,0.4c4.7,0,8.5,3.8,8.5,8.5v11.2h-5.8V8.8c0-1.4-1.2-2.6-2.6-2.6c-0.1,0-0.2,0-0.4,0c-0.5-2-1.5-3.8-2.9-5.2   C91,0.6,92.1,0.4,93.2,0.4z"/>
    <rect x="107" y="2" width="5.8" height="18.1"/>
    <path d="M125.4,15.6v6.1c-4.1-0.6-7.3-4.1-7.3-8.4V2h5.8v11.3C124,14.3,124.6,15.1,125.4,15.6z"/>
    <path d="M127.7,21.6v-6c0.9-0.4,1.4-1.3,1.4-2.3V2h5.9v11.3C135,17.5,131.9,21.1,127.7,21.6z"/>
    <path d="M8.5,0.4c4.7,0,8.4,3.7,8.4,8.5v11.2H11V8.8c0-1.4-1.2-2.6-2.6-2.6C7,6.3,5.9,7.4,5.9,8.8v11.2H0V8.8   C0,4.1,3.8,0.4,8.5,0.4z"/>
    <path d="M19.6,0.4c4.7,0,8.5,3.8,8.5,8.5v11.2h-5.9V8.8c0-1.4-1.2-2.6-2.6-2.6c-0.1,0-0.2,0-0.3,0c-0.5-2-1.5-3.8-2.9-5.2   C17.4,0.6,18.5,0.4,19.6,0.4z"/>
    <rect x="33.3" y="2" width="5.8" height="18.1"/>
    <path d="M51.8,15.6v6.1c-4.1-0.6-7.3-4.1-7.3-8.4V2h5.8v11.3C50.3,14.3,50.9,15.1,51.8,15.6z"/>
    <path d="M54.1,21.6v-6c0.8-0.4,1.4-1.3,1.4-2.3V2h5.8v11.3C61.3,17.5,58.2,21.1,54.1,21.6z"/>
  </g>
</svg>
